<?xml version="1.0" encoding="utf-8"?><svg viewBox="0 0 31 31" xmlns="http://www.w3.org/2000/svg" xmlns:xlink="http://www.w3.org/1999/xlink"><style>:root>svg{display:none}:root>svg:target{display:block}</style><svg fill="none" viewBox="0 0 23 12" id="header-arrow" xmlns="http://www.w3.org/2000/svg"><path d="M21.579 1.834H1.324l10.014 8.169 10.24-8.17z" stroke="#fff" stroke-width="2" stroke-linecap="round" stroke-linejoin="round"/></svg><svg fill="none" viewBox="0 0 31 31" id="steam-icon" xmlns="http://www.w3.org/2000/svg"><path fill-rule="evenodd" clip-rule="evenodd" d="M15.775 30.509c8.319 0 15.062-6.716 15.062-15 0-8.284-6.743-15-15.062-15-8.32 0-15.063 6.716-15.063 15 0 1.528.23 3.003.656 4.392.108.02.284.064.54.139l-.4-6.273c0-.115.195-.17.374-.221.097-.028.19-.054.244-.088.145-.092 3.137.996 3.296 1.068l3.826 1.724a4.932 4.932 0 013.332-.703l3.477-4.222c.043-3.37 2.803-6.084 6.198-6.089 3.172.034 5.801 2.44 6.102 5.574.32 3.389-2.18 6.393-5.589 6.715l-5.791 4.116a5.121 5.121 0 01-3.405 3.87c-2.687.905-5.607-.53-6.513-3.206l-2.014-.664c-.15-.048-2.891-1.183-3.634-1.6a15.063 15.063 0 0014.364 10.468zm9.58-19.112a3.09 3.09 0 01-3.1 3.081 3.09 3.09 0 01-3.099-3.08 3.09 3.09 0 013.1-3.081 3.09 3.09 0 013.099 3.08zm-1.031 0a2.062 2.062 0 01-2.068 2.056 2.062 2.062 0 01-2.068-2.056c0-1.135.926-2.055 2.068-2.055s2.068.92 2.068 2.055zM10.58 23.412c.417.202.877.308 1.342.308.353 0 .697-.058 1.036-.168a3.074 3.074 0 00.33-5.685.518.518 0 00-.693.236.512.512 0 00.237.688 2.045 2.045 0 01.988 2.816 2.07 2.07 0 01-2.784.88.518.518 0 00-.693.237.512.512 0 00.237.688z" fill="#FFB548"/></svg><svg fill="none" viewBox="0 0 31 31" id="xbox-icon" xmlns="http://www.w3.org/2000/svg"><path d="M10.551 3.158a22.246 22.246 0 014.56 2.444c.164.112.351.17.54.17a.964.964 0 00.539-.17 22.27 22.27 0 014.56-2.45.935.935 0 00.592-.879.925.925 0 00-.605-.867C17.57.205 13.732.205 10.57 1.406a.944.944 0 00-.018 1.752z" fill="#FFB548"/><path d="M24.159 3.164a.94.94 0 00-1.004-.041 40.987 40.987 0 00-5.052 3.434.942.942 0 00-.064 1.412c3.32 3.16 7.921 12.847 8.977 17.3-2.288-3.867-7.393-12.969-10.731-16.08a.942.942 0 00-1.28 0C11.661 12.3 6.574 21.406 4.285 25.28 5.342 20.827 9.93 11.128 13.251 7.97a.933.933 0 00-.059-1.412A41.445 41.445 0 008.14 3.123a.941.941 0 00-1.003.04A14.992 14.992 0 00.624 15.507c0 3.598 1.297 7.068 3.661 9.775a14.897 14.897 0 0011.36 5.228c4.395 0 8.537-1.905 11.371-5.233a14.849 14.849 0 003.65-9.77c0-4.923-2.435-9.535-6.507-12.342z" fill="#FFB548"/></svg></svg>